Coordinates
version=1
nRows=40
nColumns=38
inDegrees=no

Units are S.I. units (second, meters, Newtons, ...)
If the header above contains a line with 'inDegrees', this indicates whether rotational values are in degrees (yes) or radians (no).

endheader
time	pelvis_tilt	pelvis_list	pelvis_rotation	pelvis_tx	pelvis_ty	pelvis_tz	hip_flexion_r	hip_adduction_r	hip_rotation_r	knee_angle_r	ankle_angle_r	subtalar_angle_r	mtp_angle_r	hip_flexion_l	hip_adduction_l	hip_rotation_l	knee_angle_l	ankle_angle_l	subtalar_angle_l	mtp_angle_l	lumbar_extension	lumbar_bending	lumbar_rotation	arm_flex_r	arm_add_r	arm_rot_r	elbow_flex_r	pro_sup_r	wrist_flex_r	wrist_dev_r	arm_flex_l	arm_add_l	arm_rot_l	elbow_flex_l	pro_sup_l	wrist_flex_l	wrist_dev_l
50	1.97258	1.48916	-0.321876	0.606217	-0.124618	0.92256	0.274208	-0.00244056	-0.125011	0.592182	-0.348103	0	0	0.310801	-0.204678	-0.378021	0.761966	-0.300966	0	0	-0.318157	0.152294	-0.249505	0.492333	-0.148014	0.495209	0.12341	1.54303	0	0	0.175389	-0.476439	0.866601	0.562972	0.493804	0	0
50.01	1.98707	1.48994	-0.336015	0.605792	-0.123361	0.924421	0.262176	-0.00271738	-0.126342	0.573995	-0.352689	0	0	0.298732	-0.200538	-0.380062	0.744441	-0.302793	0	0	-0.312193	0.151035	-0.250987	0.490125	-0.148128	0.496727	0.121994	1.53721	0	0	0.174855	-0.476141	0.873561	0.561262	0.487514	0	0
50.02	2.12604	1.51382	-0.46146	0.604861	-0.124567	0.929575	0.251694	-0.0316324	-0.13185	0.551313	-0.370657	0	0	0.180519	-0.0454783	-0.0383261	0.441619	-0.292725	0	0	-0.320243	0.124355	-0.253651	0.477277	-0.156698	0.488092	0.144716	1.5184	0	0	0.199954	-0.477128	0.901774	0.55081	0.480973	0	0
50.03	2.18375	1.51375	-0.519795	0.60451	-0.123356	0.93152	0.237222	-0.0317461	-0.132959	0.53211	-0.377208	0	0	0.16154	-0.0416778	-0.034958	0.412925	-0.303338	0	0	-0.317068	0.122509	-0.254097	0.476279	-0.156044	0.489187	0.141315	1.51869	0	0	0.199934	-0.476706	0.909011	0.549111	0.474519	0	0
50.04	2.23753	1.51405	-0.574138	0.604189	-0.122168	0.933377	0.223696	-0.0328387	-0.134711	0.513401	-0.383871	0	0	0.142772	-0.0376767	-0.0316378	0.383655	-0.314164	0	0	-0.313615	0.120178	-0.254626	0.475174	-0.155357	0.491445	0.138037	1.5181	0	0	0.199555	-0.476274	0.915063	0.547634	0.468799	0	0
50.05	2.30851	1.51329	-0.645805	0.603916	-0.121105	0.93536	0.208043	-0.0332957	-0.135822	0.492924	-0.392543	0	0	0.121561	-0.033795	-0.0266291	0.351584	-0.328854	0	0	-0.312046	0.117832	-0.254641	0.474754	-0.154556	0.494774	0.134326	1.51499	0	0	0.199999	-0.475862	0.921702	0.545993	0.46288	0	0
50.06	2.3511	1.51311	-0.689243	0.60371	-0.120089	0.937156	0.193953	-0.0328641	-0.135486	0.471581	-0.400048	0	0	0.103333	-0.0308267	-0.0227195	0.321851	-0.34199	0	0	-0.309261	0.11563	-0.254012	0.473931	-0.154155	0.498659	0.131348	1.51162	0	0	0.200247	-0.474936	0.926593	0.544064	0.459537	0	0
50.07	2.35998	1.51416	-0.698623	0.603557	-0.11901	0.938631	0.182711	-0.0326425	-0.135582	0.450854	-0.407709	0	0	0.0885884	-0.0285159	-0.0181402	0.293984	-0.354673	0	0	-0.304146	0.113553	-0.253321	0.472326	-0.154141	0.503957	0.128887	1.50791	0	0	0.20017	-0.473747	0.931063	0.541796	0.45739	0	0
50.08	2.35708	1.51519	-0.696129	0.603446	-0.117981	0.93988	0.17239	-0.0321238	-0.136328	0.431197	-0.414686	0	0	0.0754571	-0.0270449	-0.0131397	0.268195	-0.366407	0	0	-0.298758	0.11197	-0.252641	0.470737	-0.154309	0.510903	0.126704	1.50406	0	0	0.199985	-0.472717	0.935402	0.53976	0.45574	0	0
50.09	2.34883	1.51597	-0.688308	0.603336	-0.117035	0.940917	0.162871	-0.0313321	-0.137764	0.413009	-0.421156	0	0	0.0634803	-0.0261272	-0.00837626	0.244667	-0.376891	0	0	-0.293455	0.110826	-0.252213	0.469433	-0.154642	0.518467	0.124751	1.49899	0	0	0.199392	-0.471991	0.939128	0.53834	0.453677	0	0
50.1	2.33901	1.51647	-0.678563	0.603217	-0.1162	0.941759	0.153545	-0.0303501	-0.138431	0.395133	-0.427435	0	0	0.0527095	-0.0255731	-0.00388341	0.223646	-0.386199	0	0	-0.288443	0.110136	-0.252296	0.468258	-0.155164	0.527122	0.123273	1.49334	0	0	0.198626	-0.47164	0.942602	0.537434	0.451438	0	0
50.11	2.33949	1.516	-0.679422	0.603108	-0.115527	0.942544	0.143667	-0.0286466	-0.137046	0.378032	-0.433224	0	0	0.0418106	-0.0254473	3.28096e-05	0.204415	-0.394652	0	0	-0.285119	0.110034	-0.251867	0.467447	-0.156118	0.536572	0.122452	1.48715	0	0	0.198271	-0.471617	0.946056	0.537304	0.448835	0	0
50.12	2.34506	1.5152	-0.685305	0.603012	-0.114886	0.943244	0.133619	-0.0269527	-0.135198	0.361527	-0.438565	0	0	0.0310159	-0.0253646	0.00420627	0.186164	-0.40232	0	0	-0.282354	0.110152	-0.251477	0.466432	-0.15735	0.546263	0.122315	1.48001	0	0	0.197939	-0.47165	0.9494	0.53748	0.44595	0	0
50.13	2.34197	1.51517	-0.681196	0.602815	-0.114117	0.943729	0.124321	-0.0259896	-0.136647	0.345323	-0.443497	0	0	0.0218124	-0.0249212	0.00947106	0.169198	-0.409124	0	0	-0.278309	0.110249	-0.252297	0.464453	-0.159004	0.555196	0.123029	1.47167	0	0	0.197112	-0.471456	0.952389	0.53774	0.442648	0	0
50.14	2.32567	1.51623	-0.662091	0.602446	-0.113187	0.943953	0.116329	-0.0262029	-0.14107	0.329201	-0.448199	0	0	0.0149674	-0.0240568	0.0155033	0.154238	-0.41498	0	0	-0.272427	0.110304	-0.255047	0.461567	-0.160838	0.563817	0.12416	1.46271	0	0	0.195491	-0.470999	0.955239	0.537902	0.438949	0	0
50.15	2.32988	1.51594	-0.665041	0.60221	-0.112533	0.944215	0.108001	-0.0255652	-0.142261	0.315212	-0.451944	0	0	0.00762001	-0.0238467	0.0186568	0.141665	-0.419817	0	0	-0.268975	0.110602	-0.25659	0.460105	-0.162106	0.573248	0.124439	1.45357	0	0	0.1944	-0.470786	0.958472	0.538445	0.43472	0	0
50.16	2.35176	1.51498	-0.68676	0.602096	-0.112101	0.944451	0.100279	-0.0250325	-0.142086	0.304364	-0.454646	0	0	0.000555475	-0.0238283	0.0196311	0.131907	-0.423451	0	0	-0.267307	0.110715	-0.257116	0.45961	-0.16303	0.583004	0.124287	1.44358	0	0	0.193889	-0.470718	0.962071	0.539168	0.430596	0	0
50.17	2.37682	1.51346	-0.712066	0.602127	-0.111804	0.944697	0.0935633	-0.0240946	-0.141773	0.296241	-0.456582	0	0	-0.0056534	-0.0243259	0.0202992	0.124706	-0.426022	0	0	-0.267027	0.110794	-0.256779	0.459258	-0.164086	0.593083	0.124722	1.43275	0	0	0.194233	-0.470406	0.96558	0.539594	0.426904	0	0
50.18	2.40225	1.51147	-0.737636	0.60218	-0.111634	0.944962	0.0869203	-0.022669	-0.140743	0.288409	-0.458192	0	0	-0.0106892	-0.0252459	0.0201619	0.120418	-0.427598	0	0	-0.267712	0.111168	-0.256418	0.459358	-0.16508	0.603497	0.125066	1.42078	0	0	0.195084	-0.469886	0.969504	0.539511	0.42351	0	0
50.19	2.43397	1.50951	-0.769652	0.602223	-0.111541	0.945163	0.0814404	-0.0221767	-0.140553	0.283705	-0.458882	0	0	-0.0149638	-0.0256735	0.0195656	0.11832	-0.428129	0	0	-0.268912	0.111204	-0.256067	0.459767	-0.165766	0.612205	0.12501	1.41106	0	0	0.195956	-0.469133	0.97257	0.538972	0.421211	0	0
50.2	2.46156	1.50795	-0.797878	0.602312	-0.111423	0.9453	0.0775181	-0.0221232	-0.140646	0.281251	-0.459146	0	0	-0.0184108	-0.0257858	0.0189082	0.117012	-0.42825	0	0	-0.269934	0.110852	-0.255319	0.459824	-0.166659	0.621206	0.125357	1.40105	0	0	0.196851	-0.468088	0.97521	0.537884	0.419132	0	0
50.21	2.49159	1.50598	-0.828818	0.602429	-0.111358	0.945466	0.0738772	-0.0220157	-0.140488	0.280061	-0.45908	0	0	-0.021938	-0.0258396	0.0179027	0.116512	-0.427889	0	0	-0.271839	0.110544	-0.254347	0.460148	-0.167628	0.630583	0.12593	1.39085	0	0	0.197877	-0.467092	0.977637	0.536831	0.417153	0	0
50.22	2.52581	1.50336	-0.86408	0.602559	-0.111327	0.945686	0.0698353	-0.0216875	-0.139754	0.279506	-0.4586	0	0	-0.0258226	-0.0258941	0.0161901	0.116873	-0.427051	0	0	-0.274755	0.110441	-0.253371	0.460945	-0.168713	0.643004	0.126547	1.37709	0	0	0.199013	-0.466207	0.980164	0.535826	0.414731	0	0
50.23	2.55383	1.50129	-0.892708	0.602679	-0.111253	0.945846	0.0666039	-0.0215311	-0.139165	0.279377	-0.457905	0	0	-0.0285313	-0.0257518	0.0144705	0.118058	-0.426386	0	0	-0.276902	0.110195	-0.25292	0.461515	-0.169606	0.653	0.127039	1.36604	0	0	0.199631	-0.465276	0.981483	0.534863	0.413313	0	0
50.24	2.57808	1.49944	-0.917286	0.602785	-0.111145	0.945969	0.0639264	-0.0218993	-0.140214	0.279545	-0.457559	0	0	-0.0307555	-0.025608	0.0127426	0.119401	-0.426008	0	0	-0.278557	0.109896	-0.252655	0.46177	-0.170688	0.663376	0.127799	1.35492	0	0	0.19996	-0.464282	0.98209	0.534004	0.412512	0	0
50.25	2.59989	1.49775	-0.939497	0.602902	-0.110995	0.946053	0.0616157	-0.0223232	-0.141292	0.280034	-0.457026	0	0	-0.0330088	-0.0254711	0.0109512	0.120164	-0.425933	0	0	-0.279774	0.109488	-0.252324	0.461801	-0.171941	0.673841	0.128723	1.34342	0	0	0.19982	-0.463297	0.98191	0.533286	0.412415	0	0
50.26	2.619	1.49625	-0.959216	0.60305	-0.110802	0.946126	0.0597744	-0.0226285	-0.141926	0.281114	-0.456223	0	0	-0.0354719	-0.0253586	0.00965207	0.119989	-0.42612	0	0	-0.280537	0.109	-0.251888	0.461627	-0.173287	0.684734	0.129778	1.33193	0	0	0.199223	-0.462315	0.981114	0.532698	0.413004	0	0
50.27	2.6392	1.49507	-0.979988	0.603226	-0.110528	0.946179	0.0585741	-0.0235621	-0.143284	0.283346	-0.455524	0	0	-0.0383831	-0.0248916	0.00933723	0.118626	-0.426613	0	0	-0.280653	0.10811	-0.251708	0.461122	-0.174587	0.696129	0.130942	1.32051	0	0	0.198004	-0.461325	0.979473	0.53211	0.414182	0	0
50.28	2.64993	1.49373	-0.991619	0.603448	-0.110267	0.946319	0.0566878	-0.0230713	-0.142309	0.282897	-0.455421	0	0	-0.0414794	-0.0251744	0.00942221	0.116483	-0.427367	0	0	-0.280794	0.107788	-0.25107	0.46057	-0.176083	0.707746	0.132536	1.30882	0	0	0.196664	-0.460077	0.976901	0.531251	0.416166	0	0
50.29	2.65714	1.49318	-0.999656	0.603658	-0.109938	0.946359	0.0558599	-0.0230581	-0.14159	0.283292	-0.45537	0	0	-0.0434757	-0.0252487	0.00857005	0.115383	-0.426155	0	0	-0.279762	0.107281	-0.250913	0.460189	-0.175267	0.698241	0.131091	1.31941	0	0	0.194214	-0.458764	0.971753	0.530651	0.420438	0	0
50.3	2.66871	1.49176	-1.01367	0.603896	-0.109586	0.946431	0.0536592	-0.0229274	-0.141142	0.281882	-0.455361	0	0	-0.0475155	-0.024984	0.0116342	0.112508	-0.428295	0	0	-0.280228	0.106458	-0.250056	0.459417	-0.179056	0.735334	0.136544	1.28147	0	0	0.19193	-0.457632	0.968467	0.530553	0.423992	0	0
50.31	2.71718	1.48541	-1.0605	0.603992	-0.10953	0.946908	0.0447295	-0.0227501	-0.141099	0.281507	-0.452956	0	0	-0.0572844	-0.0252907	0.00961254	0.108963	-0.427242	0	0	-0.281978	0.107229	-0.251409	0.471895	-0.150392	0.454685	0.0876192	1.5708	0	0	0.203201	-0.461449	1.02115	0.528457	0.371505	0	0
50.32	2.7269	1.48503	-1.06975	0.604158	-0.109152	0.946966	0.0432852	-0.023051	-0.141219	0.281277	-0.452101	0	0	-0.0585406	-0.0250092	0.00981265	0.109053	-0.426458	0	0	-0.280417	0.106631	-0.252504	0.471489	-0.150429	0.456104	0.0869217	1.5708	0	0	0.201756	-0.461198	1.02144	0.528049	0.370016	0	0
50.33	2.73325	1.48545	-1.07516	0.604296	-0.108715	0.946937	0.0427856	-0.0235563	-0.141734	0.28134	-0.452759	0	0	-0.0587988	-0.0245409	0.0110206	0.108967	-0.427878	0	0	-0.278613	0.106033	-0.255344	0.471144	-0.150398	0.461346	0.0875992	1.5708	0	0	0.194642	-0.460036	1.00058	0.528567	0.387848	0	0
50.34	2.74569	1.48435	-1.08637	0.604414	-0.108402	0.946985	0.0404709	-0.0237188	-0.142246	0.281089	-0.450615	0	0	-0.0593637	-0.0244731	0.0102065	0.111883	-0.424558	0	0	-0.276984	0.10542	-0.255673	0.470538	-0.150591	0.458521	0.0857194	1.5708	0	0	0.198921	-0.461376	1.0228	0.527922	0.367682	0	0
50.35	2.75262	1.48343	-1.09241	0.604541	-0.108111	0.947033	0.0387182	-0.0235156	-0.141913	0.281128	-0.45012	0	0	-0.0598497	-0.0245912	0.00984678	0.113762	-0.423612	0	0	-0.275898	0.105243	-0.256693	0.470212	-0.150867	0.459542	0.0851081	1.5708	0	0	0.197941	-0.461478	1.02381	0.528218	0.366709	0	0
50.36	2.76035	1.48194	-1.09932	0.604679	-0.107846	0.947132	0.0363586	-0.0231221	-0.141565	0.281006	-0.449261	0	0	-0.0605019	-0.02488	0.00871513	0.116656	-0.421926	0	0	-0.275498	0.105383	-0.257695	0.470133	-0.151109	0.460871	0.0844465	1.5708	0	0	0.197201	-0.461578	1.02558	0.52844	0.365106	0	0
50.37	2.76751	1.48068	-1.10529	0.604834	-0.107542	0.947221	0.0341666	-0.0227702	-0.14197	0.280876	-0.448509	0	0	-0.0609983	-0.0251458	0.0083043	0.119288	-0.420549	0	0	-0.274909	0.105418	-0.258811	0.469616	-0.151372	0.461458	0.0840714	1.5708	0	0	0.196406	-0.461576	1.02697	0.528555	0.363711	0	0
50.38	2.77313	1.47957	-1.10961	0.605023	-0.107225	0.94729	0.0321859	-0.0223322	-0.142607	0.280748	-0.447802	0	0	-0.0612773	-0.0255471	0.00816855	0.121801	-0.419347	0	0	-0.274149	0.105425	-0.259845	0.46883	-0.151544	0.461453	0.083696	1.5708	0	0	0.195686	-0.461588	1.02838	0.528706	0.362241	0	0
50.39	2.77733	1.47812	-1.1125	0.605252	-0.106933	0.947364	0.0298404	-0.0214126	-0.143362	0.280333	-0.446882	0	0	-0.0613976	-0.0264098	0.00738263	0.125228	-0.417743	0	0	-0.273699	0.105607	-0.260705	0.468041	-0.151611	0.460832	0.0832526	1.5708	0	0	0.195221	-0.461714	1.03046	0.52894	0.359828	0	0
